<svg width="85" height="106" viewBox="0 0 85 106" fill="none" xmlns="http://www.w3.org/2000/svg">
<path d="M43.0723 105.429C39.8818 105.429 36.832 104.772 33.923 103.458C31.014 102.144 28.621 100.221 26.7443 97.6869L2.25215 64.89C1.97063 64.4208 1.82987 63.9516 1.82987 63.4824C1.82987 63.0132 2.01755 62.591 2.39291 62.2156C3.04978 61.4649 3.82396 60.9957 4.71544 60.808C5.60691 60.6203 6.47493 60.7611 7.31948 61.2303L26.322 70.2389V28.2926C26.322 27.7343 26.5115 27.2665 26.8907 26.8892C27.2688 26.5111 27.738 26.322 28.2982 26.322C28.8575 26.322 29.3248 26.5111 29.7002 26.8892C30.0756 27.2665 30.2632 27.7343 30.2632 28.2926V69.9517C30.2632 71.5489 29.6064 72.7467 28.2926 73.5453C26.9789 74.3439 25.6182 74.4147 24.2106 73.7579L8.16404 66.1569L30.404 95.7163C31.9054 97.6869 33.7822 99.1414 36.0344 100.08C38.2865 101.018 40.6325 101.487 43.0723 101.487H65.3123C69.5351 101.487 73.101 100.056 76.01 97.1943C78.919 94.3322 80.3735 90.7897 80.3735 86.5669V67.4237C80.3735 64.951 79.537 62.8786 77.8638 61.2063C76.1916 59.5332 74.1191 58.6966 71.6465 58.6966H49.125C48.5666 58.6966 48.0984 58.5071 47.7202 58.1279C47.343 57.7498 47.1544 57.2806 47.1544 56.7204C47.1544 56.1611 47.343 55.6937 47.7202 55.3184C48.0984 54.943 48.5666 54.7554 49.125 54.7554H71.6465C75.1655 54.7554 78.1566 55.987 80.6199 58.4503C83.0832 60.9136 84.3148 63.9047 84.3148 67.4237V86.5571C84.3148 91.8187 82.454 96.2793 78.7323 99.9391C75.0116 103.599 70.5382 105.429 65.3123 105.429H43.0723ZM28.3179 0C36.1836 0 42.8612 2.75044 48.3508 8.25131C53.8404 13.7531 56.5852 20.4336 56.5852 28.2926C56.5852 30.4509 56.3506 32.5858 55.8814 34.6972C55.4122 36.8085 54.6615 38.8496 53.6293 40.8202C53.4416 41.2894 53.0897 41.5709 52.5736 41.6647C52.0575 41.7586 51.5648 41.6882 51.0956 41.4536C50.6264 41.219 50.3214 40.8436 50.1807 40.3275C50.0399 39.8114 50.0634 39.3188 50.2511 38.8496C51.0018 37.1604 51.5883 35.4244 52.0106 33.6415C52.4328 31.8585 52.644 30.0756 52.644 28.2926C52.644 21.5287 50.2773 15.7791 45.5441 11.044C40.8108 6.30883 35.0631 3.94126 28.3011 3.94126C21.539 3.94126 15.7885 6.30883 11.0496 11.044C6.31071 15.7791 3.94126 21.5287 3.94126 28.2926C3.94126 30.1694 4.1524 31.9758 4.57468 33.7118C4.99695 35.4479 5.58345 37.1135 6.33417 38.7088C6.61569 39.178 6.6612 39.6777 6.4707 40.2079C6.28021 40.7371 5.95177 41.1125 5.48539 41.334C5.01901 41.5545 4.52776 41.6178 4.01164 41.524C3.49552 41.4301 3.14362 41.1486 2.95594 40.6794C2.01755 38.8026 1.29029 36.8085 0.774176 34.6972C0.258059 32.5858 0 30.4509 0 28.2926C0 20.4336 2.75325 13.7531 8.25975 8.25131C13.7653 2.75044 20.4514 0 28.3179 0ZM28.3179 13.0906C32.5238 13.0906 36.1048 14.5747 39.0607 17.5428C42.0166 20.511 43.4946 24.0942 43.4946 28.2926C43.4946 29.3248 43.4242 30.2632 43.2835 31.1078C43.1427 31.9524 42.8847 32.7969 42.5093 33.6415C42.3075 34.227 41.9284 34.6549 41.372 34.9252C40.8164 35.1954 40.2572 35.2367 39.6941 35.0491C39.1311 34.8614 38.7557 34.5095 38.568 33.9934C38.3804 33.4772 38.3804 32.9846 38.568 32.5154C38.7557 32.0931 39.0372 30.6855 39.4126 28.2926C39.4126 25.1959 38.31 22.5449 36.1048 20.3397C33.8995 18.1345 31.2486 17.0319 28.1519 17.0319C25.0551 17.0319 22.4042 18.1345 20.199 20.3397C17.9937 22.5449 16.8911 25.1959 16.8911 28.2926C16.8911 29.0433 16.9615 29.7706 17.1023 30.4744C17.243 31.1782 17.4541 31.9054 17.7357 32.6562C17.9233 33.1253 17.9233 33.618 17.7357 34.1341C17.548 34.6502 17.1961 35.0021 16.68 35.1898C16.1639 35.3775 15.6712 35.3306 15.202 35.0491C14.7328 34.7675 14.3574 34.2983 14.0759 33.6415C13.7944 32.8907 13.5598 32.0697 13.3721 31.1782C13.1845 30.2867 13.0906 29.3248 13.0906 28.2926C13.0906 24.0698 14.577 20.4805 17.5499 17.5245C20.5227 14.5686 24.1121 13.0906 28.3179 13.0906Z" fill="white"/>
</svg>
