<svg width="915" height="338" viewBox="0 0 915 338" fill="none" xmlns="http://www.w3.org/2000/svg">
<rect width="915" height="338" fill="#22262E"/>
<mask id="mask0_2666_3533" style="mask-type:luminance" maskUnits="userSpaceOnUse" x="460" y="109" width="100" height="120">
<path d="M487.617 166.15H512.781C516.026 166.15 518.823 164.612 521.172 161.537C523.52 158.461 524.698 154.525 524.698 149.718C524.698 144.912 523.353 140.896 520.67 137.987C517.988 135.079 515.076 133.629 511.945 133.629H487.617V166.15ZM460.105 228.502V109.5H513.792C519.386 109.5 524.558 110.669 529.307 113.024C534.057 115.37 538.173 118.445 541.638 122.241C545.104 126.046 547.821 130.343 549.774 135.149C551.727 139.956 552.712 144.815 552.712 149.736C552.712 153.426 552.263 156.967 551.366 160.377C550.469 163.786 549.185 166.993 547.505 170.016C545.825 173.03 543.784 175.745 541.383 178.144C538.973 180.552 536.264 182.581 533.248 184.26L559.423 228.511H528.384L505.569 190.129H487.617V228.511H460.105V228.502Z" fill="white"/>
</mask>
<g mask="url(#mask0_2666_3533)">
<path d="M563.089 105.836H456.445V232.158H563.089V105.836Z" fill="white"/>
</g>
<mask id="mask1_2666_3533" style="mask-type:luminance" maskUnits="userSpaceOnUse" x="559" y="108" width="112" height="122">
<path d="M648.016 216.77C638.957 225.153 628.5 229.345 616.643 229.345C608.816 229.345 601.427 227.868 594.497 224.907C587.557 221.946 581.497 217.781 576.29 212.421C571.092 207.061 566.976 200.602 563.959 193.063C560.942 185.524 559.43 177.22 559.43 168.17C559.43 160.015 560.942 152.3 563.959 145.042C566.976 137.775 571.145 131.466 576.457 126.097C581.77 120.737 588.059 116.484 595.332 113.356C602.597 110.228 610.434 108.664 618.825 108.664C629.898 108.664 639.573 110.984 647.849 115.623C656.126 120.263 662.335 126.598 666.469 134.647L646.002 150.068C643.32 144.708 639.432 140.543 634.34 137.582C629.247 134.621 623.741 133.136 617.813 133.136C613.222 133.136 609.062 134.058 605.315 135.904C601.568 137.749 598.349 140.324 595.667 143.619C592.984 146.914 590.908 150.745 589.457 155.103C588.006 159.462 587.276 164.154 587.276 169.18C587.276 174.206 588.059 179.074 589.624 183.433C591.19 187.791 593.371 191.56 596.168 194.75C598.965 197.931 602.289 200.427 606.151 202.21C610.012 204.003 614.286 204.89 618.983 204.89C629.722 204.89 639.397 199.917 648.008 189.97V186.28H624.858V166.333H670.831V228.519H648.016V216.788V216.77Z" fill="white"/>
</mask>
<g mask="url(#mask1_2666_3533)">
<path d="M674.49 105H555.762V233H674.49V105Z" fill="white"/>
</g>
<mask id="mask2_2666_3533" style="mask-type:luminance" maskUnits="userSpaceOnUse" x="679" y="109" width="85" height="120">
<path d="M763.344 204.373V228.502H679.621V109.5H761.831V133.638H707.142V156.765H754.118V179.058H707.142V204.373H763.344Z" fill="white"/>
</mask>
<g mask="url(#mask2_2666_3533)">
<path d="M767.002 105.836H675.961V232.158H767.002V105.836Z" fill="white"/>
</g>
<mask id="mask3_2666_3533" style="mask-type:luminance" maskUnits="userSpaceOnUse" x="111" y="110" width="118" height="119">
<path d="M111.66 110.852L190.827 161.86V228.667H228.858V110.852H111.66Z" fill="white"/>
</mask>
<g mask="url(#mask3_2666_3533)">
<path d="M232.516 107.195H108V232.331H232.516V107.195Z" fill="#FF9900"/>
</g>
<path d="M328.096 140.771C331.517 132.872 336.196 125.772 342.063 119.665C345.185 116.405 348.633 113.461 352.353 110.852H233.977V228.667H265.781V176.859H322.704C322.405 174.197 322.238 171.526 322.238 168.837C322.238 161.359 323.434 154.013 325.747 146.94H265.552V140.771" fill="white"/>
<path fill-rule="evenodd" clip-rule="evenodd" d="M360.884 169.172C360.884 173.759 361.553 178.196 362.898 182.502C364.235 186.808 366.223 190.63 368.853 193.987C371.483 197.343 374.755 200.023 378.668 202.036C382.582 204.048 387.059 205.05 392.09 205.05C397.121 205.05 401.932 203.986 405.846 201.86C409.76 199.742 413.005 196.974 415.574 193.565C418.142 190.156 420.077 186.307 421.361 182.001C422.645 177.696 423.287 173.311 423.287 168.847C423.287 164.383 422.619 159.823 421.273 155.526C419.927 151.229 417.913 147.424 415.231 144.129C412.548 140.834 409.276 138.207 405.415 136.247C401.554 134.297 397.112 133.313 392.081 133.313C387.05 133.313 382.266 134.349 378.405 136.414C374.543 138.479 371.298 141.194 368.677 144.542C366.047 147.89 364.095 151.721 362.802 156.027C361.518 160.333 360.875 164.717 360.875 169.181M391.923 229.512C383.084 229.512 375.036 227.781 367.762 224.319C360.488 220.857 354.279 216.306 349.142 210.656C343.997 205.014 339.995 198.565 337.146 191.298C334.296 184.031 332.871 176.545 332.871 168.838C332.871 161.132 334.349 153.479 337.322 146.212C340.286 138.945 344.419 132.548 349.741 127.021C355.053 121.485 361.342 117.074 368.615 113.779C375.88 110.484 383.823 108.832 392.442 108.832C401.061 108.832 409.329 110.563 416.603 114.025C423.877 117.487 430.077 122.074 435.223 127.768C440.368 133.471 444.334 139.947 447.131 147.214C449.928 154.48 451.327 161.853 451.327 169.339C451.327 176.826 449.84 184.708 446.885 191.966C443.921 199.233 439.814 205.629 434.554 211.156C429.294 216.683 423.032 221.13 415.758 224.478C408.485 227.825 400.542 229.504 391.932 229.504" fill="white"/>
</svg>
